<svg version="1.1" xmlns="http://www.w3.org/2000/svg" viewBox="0 0 255 468" width="255" height="468" filter="invert(93%) hue-rotate(180deg)">
  <!-- svg-source:excalidraw -->
  
  <defs>
    <style class="style-fonts">
      @font-face {
        font-family: "Virgil";
        src: url("https://excalidraw.com/Virgil.woff2");
      }
      @font-face {
        font-family: "Cascadia";
        src: url("https://excalidraw.com/Cascadia.woff2");
      }
      @font-face {
        font-family: "Assistant";
        src: url("https://excalidraw.com/Assistant-Regular.woff2");
      }
    </style>
    
  </defs>
  <g stroke-linecap="round" transform="translate(10 10) rotate(0 117.5 224)"><path d="M32 0 C94.88 -1.96, 157.14 1.57, 203 0 M32 0 C89.62 0.15, 149.36 0.66, 203 0 M203 0 C224.04 1.69, 233.51 10.06, 235 32 M203 0 C224.01 1.55, 234.66 11.31, 235 32 M235 32 C237.42 119.04, 237.58 205.61, 235 416 M235 32 C236.19 156.22, 236.19 279.81, 235 416 M235 416 C233.84 436.92, 225.96 446.73, 203 448 M235 416 C234.83 439.12, 224.88 447.42, 203 448 M203 448 C149.86 446.7, 96.77 446.1, 32 448 M203 448 C154.57 448.88, 106.92 448.35, 32 448 M32 448 C8.69 447.86, -0.78 435.51, 0 416 M32 448 C9.62 448.46, 1.32 435.52, 0 416 M0 416 C0.63 288.78, 0.59 163.22, 0 32 M0 416 C-1.18 293.78, -0.77 170.96, 0 32 M0 32 C-1.68 10.84, 9.09 -1.68, 32 0 M0 32 C0.72 10, 9.5 2.08, 32 0" stroke="#1e1e1e" stroke-width="1" fill="none"></path></g><g transform="translate(100.44971466064453 13.5) rotate(0 67.55028533935547 17.5)"><text x="0" y="0" font-family="Virgil, Segoe UI Emoji" font-size="28px" fill="#1e1e1e" text-anchor="start" style="white-space: pre;" direction="ltr" dominant-baseline="text-before-edge">Proyectos</text></g><g stroke-linecap="round" transform="translate(55.44392738564443 65.30299677534936) rotate(0 76.55607261435568 90.69700322465067)"><path d="M32 0 C60.52 -1.64, 90.48 -1.78, 121.11 0 M32 0 C54.5 0.5, 78.88 -0.39, 121.11 0 M121.11 0 C141.94 -0.21, 154.57 11.73, 153.11 32 M121.11 0 C140.74 1.73, 153.97 11.94, 153.11 32 M153.11 32 C151.17 63.49, 151.21 96, 153.11 149.39 M153.11 32 C152.48 57.53, 152 83.74, 153.11 149.39 M153.11 149.39 C153.04 168.83, 141.49 180.5, 121.11 181.39 M153.11 149.39 C151.21 170.95, 142.88 181.32, 121.11 181.39 M121.11 181.39 C99.11 183.63, 75.01 182.01, 32 181.39 M121.11 181.39 C85.94 180.13, 49.6 180.16, 32 181.39 M32 181.39 C8.9 180.27, 0.77 171.4, 0 149.39 M32 181.39 C10.01 183.3, -0.95 171.83, 0 149.39 M0 149.39 C-1.31 122.51, -1.35 99.37, 0 32 M0 149.39 C-0.03 119.93, 0.18 88.13, 0 32 M0 32 C0.24 10.72, 12.1 1.76, 32 0 M0 32 C-0.6 12.91, 10.42 -1.93, 32 0" stroke="#1e1e1e" stroke-width="1" fill="none"></path></g><g stroke-linecap="round" transform="translate(66.17152991759235 77.9810724949242) rotate(0 67.29132497312787 41.447555237071526)"><path d="M20.72 0 C52.75 -0.74, 86.75 1.47, 113.86 0 M20.72 0 C50.24 -0.84, 77.67 -0.63, 113.86 0 M113.86 0 C129.13 1.07, 133.1 8.41, 134.58 20.72 M113.86 0 C128.53 1.27, 134.05 6.42, 134.58 20.72 M134.58 20.72 C132.58 35.48, 132.71 50.53, 134.58 62.17 M134.58 20.72 C134.65 34.67, 134.71 49.37, 134.58 62.17 M134.58 62.17 C133.62 75.09, 126.02 83.09, 113.86 82.9 M134.58 62.17 C135.02 75.91, 126.48 81.27, 113.86 82.9 M113.86 82.9 C78.23 83.74, 48.32 83.13, 20.72 82.9 M113.86 82.9 C91.67 81.72, 70.43 81.74, 20.72 82.9 M20.72 82.9 C7.68 83.57, -0.57 77.64, 0 62.17 M20.72 82.9 C5.96 84, -1.99 77.61, 0 62.17 M0 62.17 C-0.42 53.33, -0.73 43.9, 0 20.72 M0 62.17 C0.03 48.8, 0.24 36.63, 0 20.72 M0 20.72 C1.43 8.67, 6.39 1.95, 20.72 0 M0 20.72 C-0.25 4.97, 5.82 -2.01, 20.72 0" stroke="#1e1e1e" stroke-width="1" fill="none"></path></g><g transform="translate(117.08940365781018 109.67626179386127) rotate(0 16.373451232910156 9.752365938134488)"><text x="16.373451232910156" y="0" font-family="Virgil, Segoe UI Emoji" font-size="15.60378550101517px" fill="#1e1e1e" text-anchor="middle" style="white-space: pre;" direction="ltr" dominant-baseline="text-before-edge">IMG</text></g><g transform="translate(69.09723969903257 169.16569401648155) rotate(0 23.195075897183983 9.752365938134488)"><text x="0" y="0" font-family="Virgil, Segoe UI Emoji" font-size="15.60378550101517px" fill="#1e1e1e" text-anchor="start" style="white-space: pre;" direction="ltr" dominant-baseline="text-before-edge">Titulo</text></g><g transform="translate(90.55244476292842 206.71230287829928) rotate(0 41.00683418939275 9.752365938134488)"><text x="0" y="0" font-family="Virgil, Segoe UI Emoji" font-size="15.603785501015171px" fill="#1e1e1e" text-anchor="start" style="white-space: pre;" direction="ltr" dominant-baseline="text-before-edge">Descripción</text></g><g stroke-linecap="round" transform="translate(55.4439273856442 258.30299677534936) rotate(0 76.55607261435568 90.69700322465064)"><path d="M32 0 C49.81 -1.32, 70.22 0.23, 121.11 0 M32 0 C52.06 -1.1, 72.47 -0.77, 121.11 0 M121.11 0 C144.27 -1.39, 152.96 11.68, 153.11 32 M121.11 0 C142.64 -0.61, 151.01 12.58, 153.11 32 M153.11 32 C152.19 68.68, 154.67 110.35, 153.11 149.39 M153.11 32 C154.01 61.1, 153.61 88.49, 153.11 149.39 M153.11 149.39 C153.01 169.2, 142.99 180.55, 121.11 181.39 M153.11 149.39 C154.31 170, 141.54 180.67, 121.11 181.39 M121.11 181.39 C102.56 183.44, 83.6 182.92, 32 181.39 M121.11 181.39 C87.53 180.15, 53.91 181.91, 32 181.39 M32 181.39 C8.91 181.13, -1.39 172.67, 0 149.39 M32 181.39 C12.04 180.64, 0.29 169.31, 0 149.39 M0 149.39 C0.98 106.79, -1.73 63.42, 0 32 M0 149.39 C1.73 125.14, 1.86 99.85, 0 32 M0 32 C-0.36 9.07, 10.45 1.44, 32 0 M0 32 C-0.81 12.42, 9.41 -2.24, 32 0" stroke="#1e1e1e" stroke-width="1" fill="none"></path></g><g stroke-linecap="round" transform="translate(66.17152991759212 270.9810724949242) rotate(0 67.29132497312787 41.447555237071526)"><path d="M20.72 0 C53.71 1.1, 85.33 -0.35, 113.86 0 M20.72 0 C57.95 0.32, 96.08 -0.5, 113.86 0 M113.86 0 C127.52 1.02, 134.75 6.38, 134.58 20.72 M113.86 0 C125.58 1.91, 135.26 8.04, 134.58 20.72 M134.58 20.72 C135.25 32.97, 133.14 43.57, 134.58 62.17 M134.58 20.72 C135.15 33.13, 134.81 46.03, 134.58 62.17 M134.58 62.17 C135.13 75.14, 128.71 82.26, 113.86 82.9 M134.58 62.17 C133.68 75.26, 125.62 81.86, 113.86 82.9 M113.86 82.9 C83.63 85.06, 54.89 83.07, 20.72 82.9 M113.86 82.9 C88.34 82.79, 62.84 81.86, 20.72 82.9 M20.72 82.9 C5.52 84.84, 1.2 75.33, 0 62.17 M20.72 82.9 C7.2 81.48, 1.58 76.82, 0 62.17 M0 62.17 C-1.6 51.5, -2.12 37.65, 0 20.72 M0 62.17 C0.49 51, -0.43 40.31, 0 20.72 M0 20.72 C-0.22 8.34, 6.21 1.53, 20.72 0 M0 20.72 C-1.26 4.67, 7.63 -2.19, 20.72 0" stroke="#1e1e1e" stroke-width="1" fill="none"></path></g><g transform="translate(117.08940365780995 302.6762617938613) rotate(0 16.373451232910156 9.752365938134488)"><text x="16.373451232910156" y="0" font-family="Virgil, Segoe UI Emoji" font-size="15.60378550101517px" fill="#1e1e1e" text-anchor="middle" style="white-space: pre;" direction="ltr" dominant-baseline="text-before-edge">IMG</text></g><g transform="translate(69.09723969903257 362.16569401648155) rotate(0 23.195075897183983 9.752365938134488)"><text x="0" y="0" font-family="Virgil, Segoe UI Emoji" font-size="15.60378550101517px" fill="#1e1e1e" text-anchor="start" style="white-space: pre;" direction="ltr" dominant-baseline="text-before-edge">Titulo</text></g><g transform="translate(90.55244476292842 399.7123028782993) rotate(0 41.00683418939275 9.75236593813446)"><text x="0" y="0" font-family="Virgil, Segoe UI Emoji" font-size="15.603785501015171px" fill="#1e1e1e" text-anchor="start" style="white-space: pre;" direction="ltr" dominant-baseline="text-before-edge">Descripción</text></g><g transform="translate(47 27) rotate(0 -10 0)" stroke="none"><path fill="#1e1e1e" d="M 0,2.66 Q 0,2.66 -1.15,2.68 -2.3,2.70 -3.36,2.72 -4.42,2.74 -5.76,2.81 -7.11,2.87 -8.58,2.93 -10.05,2.98 -11.13,3.02 -12.22,3.07 -13.52,3.11 -14.82,3.14 -17.41,3.17 -20,3.21 -20.51,3.12 -21.02,3.04 -21.48,2.79 -21.94,2.55 -22.30,2.17 -22.65,1.80 -22.87,1.33 -23.09,0.85 -23.15,0.34 -23.20,-0.17 -23.09,-0.68 -22.98,-1.18 -22.71,-1.63 -22.44,-2.07 -22.05,-2.41 -21.65,-2.75 -21.17,-2.94 -20.69,-3.13 -20.17,-3.16 -19.65,-3.19 -19.15,-3.05 -18.65,-2.91 -18.22,-2.62 -17.79,-2.33 -17.47,-1.91 -17.16,-1.50 -16.99,-1.01 -16.83,-0.51 -16.83,0.00 -16.83,0.51 -16.99,1.01 -17.16,1.50 -17.47,1.91 -17.79,2.33 -18.22,2.62 -18.65,2.91 -19.15,3.05 -19.65,3.19 -20.17,3.16 -20.69,3.13 -21.17,2.94 -21.65,2.75 -22.05,2.41 -22.44,2.07 -22.71,1.63 -22.98,1.18 -23.09,0.68 -23.20,0.17 -23.15,-0.34 -23.09,-0.85 -22.87,-1.33 -22.65,-1.80 -22.29,-2.17 -21.94,-2.55 -21.48,-2.80 -21.02,-3.04 -20.51,-3.12 -19.99,-3.21 -19.99,-3.21 -20,-3.21 -17.41,-3.17 -14.82,-3.14 -13.52,-3.11 -12.22,-3.07 -11.13,-3.02 -10.05,-2.98 -8.58,-2.93 -7.11,-2.87 -5.76,-2.81 -4.42,-2.74 -3.36,-2.72 -2.3,-2.70 -1.15,-2.68 0,-2.66 0.31,-2.62 0.63,-2.59 0.93,-2.47 1.23,-2.36 1.50,-2.17 1.76,-1.99 1.98,-1.75 2.19,-1.51 2.34,-1.23 2.49,-0.94 2.57,-0.63 2.64,-0.32 2.64,0.00 2.64,0.32 2.57,0.63 2.49,0.94 2.34,1.23 2.19,1.51 1.98,1.75 1.76,1.99 1.50,2.17 1.23,2.36 0.93,2.47 0.63,2.59 0.31,2.62 -0.00,2.66 -0.00,2.66 L 0,2.66 Z"></path></g><g transform="translate(48 36) rotate(0 -9.5 1)" stroke="none"><path fill="#1e1e1e" d="M 0.64,2.59 Q 0.64,2.59 -0.49,2.89 -1.64,3.19 -3.19,3.45 -4.74,3.71 -6.67,4.31 -8.61,4.91 -10.28,4.98 -11.95,5.05 -13.07,5.09 -14.20,5.14 -16.60,5.17 -18.99,5.20 -19.51,5.11 -20.02,5.03 -20.48,4.79 -20.93,4.55 -21.29,4.17 -21.65,3.79 -21.86,3.32 -22.08,2.85 -22.14,2.34 -22.19,1.82 -22.08,1.32 -21.97,0.81 -21.70,0.37 -21.44,-0.07 -21.04,-0.40 -20.65,-0.74 -20.17,-0.93 -19.68,-1.12 -19.17,-1.15 -18.65,-1.18 -18.15,-1.04 -17.65,-0.90 -17.22,-0.61 -16.79,-0.32 -16.48,0.08 -16.16,0.49 -16.00,0.99 -15.83,1.48 -15.83,1.99 -15.83,2.51 -16.00,3.00 -16.16,3.50 -16.48,3.91 -16.79,4.32 -17.22,4.61 -17.65,4.90 -18.15,5.04 -18.65,5.18 -19.17,5.15 -19.68,5.12 -20.17,4.93 -20.65,4.74 -21.04,4.40 -21.44,4.07 -21.70,3.62 -21.97,3.18 -22.08,2.67 -22.19,2.17 -22.14,1.65 -22.08,1.14 -21.86,0.67 -21.65,0.20 -21.29,-0.17 -20.93,-0.55 -20.48,-0.79 -20.02,-1.03 -19.51,-1.11 -18.99,-1.20 -19.00,-1.20 -19.00,-1.20 -17.40,-1.18 -15.81,-1.16 -14.49,-1.14 -13.17,-1.11 -11.95,-1.08 -10.72,-1.05 -9.15,-1.02 -7.58,-0.99 -6.50,-1.43 -5.42,-1.87 -4.19,-1.95 -2.95,-2.04 -1.80,-2.31 -0.64,-2.59 -0.32,-2.63 -0.00,-2.66 0.31,-2.63 0.63,-2.59 0.93,-2.48 1.23,-2.36 1.49,-2.18 1.76,-2.00 1.97,-1.76 2.19,-1.52 2.34,-1.23 2.49,-0.95 2.57,-0.64 2.64,-0.33 2.65,-0.00 2.65,0.31 2.57,0.62 2.49,0.93 2.35,1.22 2.20,1.50 1.98,1.75 1.77,1.99 1.51,2.17 1.24,2.36 0.94,2.47 0.64,2.59 0.64,2.59 L 0.64,2.59 Z"></path></g><g transform="translate(49 50) rotate(0 -9 0)" stroke="none"><path fill="#1e1e1e" d="M 0,2.61 Q 0,2.61 -1.43,2.60 -2.87,2.59 -4.34,2.57 -5.82,2.55 -7.41,2.63 -9.00,2.72 -10.80,2.77 -12.60,2.83 -15.30,2.88 -18,2.92 -18.46,2.85 -18.93,2.77 -19.35,2.55 -19.77,2.33 -20.09,1.98 -20.42,1.64 -20.62,1.21 -20.82,0.78 -20.87,0.31 -20.92,-0.15 -20.82,-0.62 -20.71,-1.08 -20.47,-1.48 -20.23,-1.89 -19.87,-2.20 -19.50,-2.50 -19.06,-2.68 -18.62,-2.85 -18.15,-2.88 -17.68,-2.91 -17.22,-2.78 -16.77,-2.65 -16.37,-2.39 -15.98,-2.12 -15.69,-1.74 -15.41,-1.37 -15.26,-0.92 -15.11,-0.47 -15.11,0.00 -15.11,0.47 -15.26,0.92 -15.41,1.37 -15.70,1.74 -15.98,2.12 -16.37,2.39 -16.77,2.65 -17.22,2.78 -17.68,2.91 -18.15,2.88 -18.63,2.85 -19.07,2.68 -19.51,2.50 -19.87,2.20 -20.23,1.89 -20.47,1.48 -20.72,1.08 -20.82,0.62 -20.92,0.15 -20.87,-0.31 -20.82,-0.78 -20.62,-1.21 -20.42,-1.64 -20.09,-1.98 -19.77,-2.33 -19.35,-2.55 -18.93,-2.77 -18.46,-2.85 -17.99,-2.92 -17.99,-2.92 -18,-2.92 -15.30,-2.88 -12.60,-2.83 -10.80,-2.77 -9.00,-2.72 -7.41,-2.63 -5.82,-2.55 -4.34,-2.57 -2.87,-2.59 -1.43,-2.60 0,-2.61 0.31,-2.58 0.62,-2.54 0.92,-2.43 1.21,-2.31 1.47,-2.13 1.73,-1.95 1.94,-1.72 2.15,-1.48 2.30,-1.20 2.44,-0.92 2.52,-0.62 2.59,-0.31 2.59,0.00 2.59,0.31 2.52,0.62 2.44,0.92 2.30,1.20 2.15,1.48 1.94,1.72 1.73,1.96 1.47,2.13 1.21,2.31 0.92,2.43 0.62,2.54 0.31,2.58 -0.00,2.61 -0.00,2.61 L 0,2.61 Z"></path></g></svg>