<svg version="1.1" xmlns="http://www.w3.org/2000/svg" viewBox="0 0 722 394" width="722" height="394" filter="invert(93%) hue-rotate(180deg)">
  <!-- svg-source:excalidraw -->
  
  <defs>
    <style class="style-fonts">
      @font-face {
        font-family: "Virgil";
        src: url("https://excalidraw.com/Virgil.woff2");
      }
      @font-face {
        font-family: "Cascadia";
        src: url("https://excalidraw.com/Cascadia.woff2");
      }
      @font-face {
        font-family: "Assistant";
        src: url("https://excalidraw.com/Assistant-Regular.woff2");
      }
    </style>
    
  </defs>
  <g stroke-linecap="round" transform="translate(10 10) rotate(0 351 187)"><path d="M32 0 C165.72 -0.97, 298.57 -0.16, 670 0 M32 0 C221.16 -2.72, 410.93 -2.47, 670 0 M670 0 C691.78 -1.38, 703.75 10.97, 702 32 M670 0 C691.35 -0.89, 702.63 12.35, 702 32 M702 32 C701.37 127.47, 702.45 224.29, 702 342 M702 32 C702 130.92, 701.57 230.43, 702 342 M702 342 C701.01 364.82, 692.04 372.68, 670 374 M702 342 C702.55 364.22, 690.8 373.78, 670 374 M670 374 C437.73 375.73, 205.33 375.38, 32 374 M670 374 C504.93 375.63, 340.07 376.13, 32 374 M32 374 C10.17 373.39, 0.53 364.64, 0 342 M32 374 C12.51 374.97, -0.64 365.05, 0 342 M0 342 C1.36 225.49, 1.43 106.34, 0 32 M0 342 C-1.48 243.42, -1.46 144.25, 0 32 M0 32 C-1.23 8.84, 12.41 -1.04, 32 0 M0 32 C0.97 11.8, 12.74 -1.59, 32 0" stroke="#1e1e1e" stroke-width="2" fill="none"></path></g><g transform="translate(556 22.5) rotate(0 67.55028533935547 17.5)"><text x="0" y="0" font-family="Virgil, Segoe UI Emoji" font-size="28px" fill="#1e1e1e" text-anchor="start" style="white-space: pre;" direction="ltr" dominant-baseline="text-before-edge">Proyectos</text></g><g stroke-linecap="round" transform="translate(24 111.6183752537919) rotate(0 76.55607261435568 90.69700322465067)"><path d="M32 0 C66.4 1.47, 97.69 1.45, 121.11 0 M32 0 C52.07 -0.63, 73.5 0.5, 121.11 0 M121.11 0 C140.51 -0.89, 155.11 11.18, 153.11 32 M121.11 0 C140.18 -1.24, 153.16 10.12, 153.11 32 M153.11 32 C152.36 73.28, 153.61 117.07, 153.11 149.39 M153.11 32 C152.82 72.9, 152.46 112.96, 153.11 149.39 M153.11 149.39 C153.61 170.63, 142.77 181.97, 121.11 181.39 M153.11 149.39 C154.6 168.69, 142.15 179.81, 121.11 181.39 M121.11 181.39 C87.65 179.89, 57.13 179.82, 32 181.39 M121.11 181.39 C86.9 182.86, 52.14 182.15, 32 181.39 M32 181.39 C12.3 181.83, 0.95 171.84, 0 149.39 M32 181.39 C9.83 180.18, 1.58 168.71, 0 149.39 M0 149.39 C0.39 117.84, 0.91 87.72, 0 32 M0 149.39 C1.28 104.16, -0.53 59.29, 0 32 M0 32 C-0.26 11.86, 11.76 -1.31, 32 0 M0 32 C-2.16 10.31, 8.4 1.24, 32 0" stroke="#1e1e1e" stroke-width="1" fill="none"></path></g><g stroke-linecap="round" transform="translate(34.72760253194792 124.29645097336675) rotate(0 67.29132497312793 41.447555237071526)"><path d="M20.72 0 C40.65 -0.88, 62.45 0.82, 113.86 0 M20.72 0 C40.7 -0.96, 61.7 -0.44, 113.86 0 M113.86 0 C128.75 -0.49, 134.46 8.51, 134.58 20.72 M113.86 0 C125.69 -1.94, 132.89 5.5, 134.58 20.72 M134.58 20.72 C132.63 30.47, 134.39 37.93, 134.58 62.17 M134.58 20.72 C133.74 30.49, 134.85 41.75, 134.58 62.17 M134.58 62.17 C133.71 76.69, 125.82 84.08, 113.86 82.9 M134.58 62.17 C132.77 77.25, 128.57 82.9, 113.86 82.9 M113.86 82.9 C88.87 85.47, 58.7 84.13, 20.72 82.9 M113.86 82.9 C80.86 82.53, 46.04 83.78, 20.72 82.9 M20.72 82.9 C5.05 81.31, -1.32 74.14, 0 62.17 M20.72 82.9 C7.29 81.66, 0.56 76.84, 0 62.17 M0 62.17 C-1.62 50.41, -1.4 37.3, 0 20.72 M0 62.17 C-0.23 48.09, -1.14 33.89, 0 20.72 M0 20.72 C-1.19 7.61, 7.14 -0.52, 20.72 0 M0 20.72 C-1.36 6.57, 5.19 -0.18, 20.72 0" stroke="#1e1e1e" stroke-width="1" fill="none"></path></g><g transform="translate(85.6454762721657 155.9916402723038) rotate(0 16.373451232910156 9.752365938134488)"><text x="16.373451232910156" y="0" font-family="Virgil, Segoe UI Emoji" font-size="15.60378550101517px" fill="#1e1e1e" text-anchor="middle" style="white-space: pre;" direction="ltr" dominant-baseline="text-before-edge">IMG</text></g><g transform="translate(37.653312313388255 215.48107249492415) rotate(0 23.195075897183983 9.752365938134488)"><text x="0" y="0" font-family="Virgil, Segoe UI Emoji" font-size="15.60378550101517px" fill="#1e1e1e" text-anchor="start" style="white-space: pre;" direction="ltr" dominant-baseline="text-before-edge">Titulo</text></g><g transform="translate(59.10851737728416 253.02768135674188) rotate(0 41.00683418939278 9.752365938134488)"><text x="0" y="0" font-family="Virgil, Segoe UI Emoji" font-size="15.603785501015171px" fill="#1e1e1e" text-anchor="start" style="white-space: pre;" direction="ltr" dominant-baseline="text-before-edge">Descripci贸n</text></g><g stroke-linecap="round" transform="translate(200.03020518332738 110.64313865997849) rotate(0 76.55607261435566 90.69700322465067)"><path d="M32 0 C51.08 -1.97, 71.52 -2.47, 121.11 0 M32 0 C60.7 -0.36, 89.9 -0.19, 121.11 0 M121.11 0 C140.84 1.43, 154.71 10.23, 153.11 32 M121.11 0 C144.47 -0.16, 154.51 8.47, 153.11 32 M153.11 32 C153.92 63.17, 155.36 96.22, 153.11 149.39 M153.11 32 C153.43 69.96, 154.47 109.74, 153.11 149.39 M153.11 149.39 C153.51 172.09, 141.48 179.96, 121.11 181.39 M153.11 149.39 C151.38 170.85, 144.21 181.75, 121.11 181.39 M121.11 181.39 C102.62 182.98, 84.7 180.34, 32 181.39 M121.11 181.39 C97.71 181.69, 74.47 182.48, 32 181.39 M32 181.39 C11.37 182.61, -0.69 171.02, 0 149.39 M32 181.39 C12.28 181.47, 0.22 170.06, 0 149.39 M0 149.39 C0.3 125.25, -1.42 98.49, 0 32 M0 149.39 C1.04 106.46, 0.93 62.56, 0 32 M0 32 C1.89 8.83, 12.6 -0.01, 32 0 M0 32 C1.1 9.58, 11.36 0.92, 32 0" stroke="#1e1e1e" stroke-width="1" fill="none"></path></g><g stroke-linecap="round" transform="translate(210.7578077152753 123.32121437955334) rotate(0 67.2913249731279 41.447555237071526)"><path d="M20.72 0 C59.13 -1.1, 94.37 1.38, 113.86 0 M20.72 0 C48.04 0.13, 73.43 1.15, 113.86 0 M113.86 0 C129.27 -0.44, 136.34 6.77, 134.58 20.72 M113.86 0 C129.07 -2.19, 134.12 8.86, 134.58 20.72 M134.58 20.72 C135.8 31.42, 135.09 46.43, 134.58 62.17 M134.58 20.72 C134.94 33.82, 134.59 45.73, 134.58 62.17 M134.58 62.17 C133.62 74.55, 126.17 83, 113.86 82.9 M134.58 62.17 C136.34 76.34, 125.66 81.95, 113.86 82.9 M113.86 82.9 C87.21 82.56, 56.98 83.05, 20.72 82.9 M113.86 82.9 C82.91 83.73, 52.62 83.52, 20.72 82.9 M20.72 82.9 C6.21 83.19, 1.4 76.05, 0 62.17 M20.72 82.9 C7.13 82.23, -2.06 77.05, 0 62.17 M0 62.17 C-1.06 45.57, 1.21 30.85, 0 20.72 M0 62.17 C0.1 47.63, 0.8 32.34, 0 20.72 M0 20.72 C1.93 6.9, 7.87 -0.95, 20.72 0 M0 20.72 C0.69 7.83, 9.01 0.43, 20.72 0" stroke="#1e1e1e" stroke-width="1" fill="none"></path></g><g transform="translate(261.6756814554931 155.0164036784904) rotate(0 16.373451232910156 9.752365938134488)"><text x="16.373451232910156" y="0" font-family="Virgil, Segoe UI Emoji" font-size="15.60378550101517px" fill="#1e1e1e" text-anchor="middle" style="white-space: pre;" direction="ltr" dominant-baseline="text-before-edge">IMG</text></g><g transform="translate(213.68351749671558 214.5058359011107) rotate(0 23.195075897183983 9.752365938134488)"><text x="0" y="0" font-family="Virgil, Segoe UI Emoji" font-size="15.60378550101517px" fill="#1e1e1e" text-anchor="start" style="white-space: pre;" direction="ltr" dominant-baseline="text-before-edge">Titulo</text></g><g transform="translate(235.13872256061154 252.05244476292842) rotate(0 41.00683418939275 9.752365938134488)"><text x="0" y="0" font-family="Virgil, Segoe UI Emoji" font-size="15.603785501015171px" fill="#1e1e1e" text-anchor="start" style="white-space: pre;" direction="ltr" dominant-baseline="text-before-edge">Descripci贸n</text></g><g stroke-linecap="round" transform="translate(375.3289829212947 112.10599355069866) rotate(0 76.55607261435568 90.69700322465067)"><path d="M32 0 C66.01 -0.13, 101.63 0.89, 121.11 0 M32 0 C60.66 0.67, 88.09 -0.58, 121.11 0 M121.11 0 C141.74 0.15, 154.16 11.27, 153.11 32 M121.11 0 C144.32 0.53, 152.81 10.03, 153.11 32 M153.11 32 C150.45 65.27, 152.17 97.97, 153.11 149.39 M153.11 32 C154.1 71.31, 153.12 110.11, 153.11 149.39 M153.11 149.39 C153.09 172.58, 142.05 181.78, 121.11 181.39 M153.11 149.39 C151.44 172.24, 142.51 182.3, 121.11 181.39 M121.11 181.39 C97.03 181.39, 77.54 181.52, 32 181.39 M121.11 181.39 C89 182.31, 58.06 182.13, 32 181.39 M32 181.39 C11.27 180.29, 0.34 169.15, 0 149.39 M32 181.39 C10.75 179.26, 1.83 171.47, 0 149.39 M0 149.39 C-0.17 112.17, -2.7 73.15, 0 32 M0 149.39 C0.71 125.44, 0.16 101.69, 0 32 M0 32 C-1.85 10.66, 10.99 0.37, 32 0 M0 32 C1.52 10.15, 10.15 0.64, 32 0" stroke="#1e1e1e" stroke-width="1" fill="none"></path></g><g stroke-linecap="round" transform="translate(386.05658545324263 124.78406927027345) rotate(0 67.29132497312793 41.447555237071526)"><path d="M20.72 0 C55.53 1.35, 92.31 -0.97, 113.86 0 M20.72 0 C48.71 -1.21, 74.99 -0.49, 113.86 0 M113.86 0 C128.72 0.6, 136.22 7.37, 134.58 20.72 M113.86 0 C127.38 -0.63, 134.3 5.27, 134.58 20.72 M134.58 20.72 C134.1 35.19, 134.91 54.5, 134.58 62.17 M134.58 20.72 C133.63 30.23, 134.58 41.79, 134.58 62.17 M134.58 62.17 C134.19 76.37, 126.22 84.21, 113.86 82.9 M134.58 62.17 C134.64 76.9, 126.61 80.91, 113.86 82.9 M113.86 82.9 C86.41 82.86, 56.7 81.16, 20.72 82.9 M113.86 82.9 C79.05 83.34, 45.85 82.64, 20.72 82.9 M20.72 82.9 C7.25 81.32, 0.07 74.13, 0 62.17 M20.72 82.9 C8.74 83.64, 0.49 78.09, 0 62.17 M0 62.17 C-1.81 49.42, -2.09 36.38, 0 20.72 M0 62.17 C-0.78 47.61, -0.76 32.33, 0 20.72 M0 20.72 C0.32 7.28, 8.23 -0.45, 20.72 0 M0 20.72 C-0.52 7.55, 8.13 1.99, 20.72 0" stroke="#1e1e1e" stroke-width="1" fill="none"></path></g><g transform="translate(436.97445919346035 156.47925856921051) rotate(0 16.373451232910156 9.752365938134488)"><text x="16.373451232910156" y="0" font-family="Virgil, Segoe UI Emoji" font-size="15.60378550101517px" fill="#1e1e1e" text-anchor="middle" style="white-space: pre;" direction="ltr" dominant-baseline="text-before-edge">IMG</text></g><g transform="translate(388.9822952346831 215.9686907918309) rotate(0 23.195075897183983 9.752365938134488)"><text x="0" y="0" font-family="Virgil, Segoe UI Emoji" font-size="15.60378550101517px" fill="#1e1e1e" text-anchor="start" style="white-space: pre;" direction="ltr" dominant-baseline="text-before-edge">Titulo</text></g><g transform="translate(410.4375002985787 253.51529965364864) rotate(0 41.00683418939275 9.752365938134488)"><text x="0" y="0" font-family="Virgil, Segoe UI Emoji" font-size="15.603785501015171px" fill="#1e1e1e" text-anchor="start" style="white-space: pre;" direction="ltr" dominant-baseline="text-before-edge">Descripci贸n</text></g><g stroke-linecap="round" transform="translate(551.359188104622 111.1307569568852) rotate(0 76.55607261435568 90.69700322465067)"><path d="M32 0 C65.91 -1.31, 102.55 0.45, 121.11 0 M32 0 C61.29 -0.48, 90.71 -0.92, 121.11 0 M121.11 0 C144.2 -1.83, 152.6 10.56, 153.11 32 M121.11 0 C140.61 0.81, 155.01 9.35, 153.11 32 M153.11 32 C151.97 67.44, 154.93 102.53, 153.11 149.39 M153.11 32 C152.28 69.87, 151.8 106.08, 153.11 149.39 M153.11 149.39 C153.36 169.25, 142.33 183.03, 121.11 181.39 M153.11 149.39 C153.13 171.88, 140.51 182.93, 121.11 181.39 M121.11 181.39 C102.73 181.41, 82.66 181.16, 32 181.39 M121.11 181.39 C102.21 180.89, 81.94 181.48, 32 181.39 M32 181.39 C10.44 182.29, 0.5 169.1, 0 149.39 M32 181.39 C9.75 179.2, -2.16 172.11, 0 149.39 M0 149.39 C0.63 116.9, -0.09 88.43, 0 32 M0 149.39 C-1 112.29, -0.24 75.49, 0 32 M0 32 C1.63 9.38, 11.37 -1.53, 32 0 M0 32 C-0.68 12.11, 9.02 -1.52, 32 0" stroke="#1e1e1e" stroke-width="1" fill="none"></path></g><g stroke-linecap="round" transform="translate(562.08679063657 123.80883267646004) rotate(0 67.29132497312793 41.447555237071526)"><path d="M20.72 0 C55.09 1.38, 89.76 1.96, 113.86 0 M20.72 0 C50.71 -0.46, 81.81 -0.66, 113.86 0 M113.86 0 C127.16 -0.1, 132.99 7.61, 134.58 20.72 M113.86 0 C129.58 -1.31, 134.63 6.85, 134.58 20.72 M134.58 20.72 C136.2 28.79, 134.73 36.2, 134.58 62.17 M134.58 20.72 C134.13 35.02, 134.72 50.31, 134.58 62.17 M134.58 62.17 C134.47 77.62, 127.69 83.9, 113.86 82.9 M134.58 62.17 C132.65 77.52, 125.59 83.64, 113.86 82.9 M113.86 82.9 C90.88 83.52, 68.54 83.24, 20.72 82.9 M113.86 82.9 C94.77 84.11, 75.14 83.65, 20.72 82.9 M20.72 82.9 C7.41 81.27, -0.8 74.08, 0 62.17 M20.72 82.9 C4.75 84.27, -0.9 76.16, 0 62.17 M0 62.17 C-0.15 53.95, 0.22 46.41, 0 20.72 M0 62.17 C0.63 51.54, 0.91 38.53, 0 20.72 M0 20.72 C0.7 5.37, 6.31 1.26, 20.72 0 M0 20.72 C-1.65 5.38, 7.7 -0.45, 20.72 0" stroke="#1e1e1e" stroke-width="1" fill="none"></path></g><g transform="translate(613.0046643767877 155.5040219753971) rotate(0 16.373451232910156 9.752365938134488)"><text x="16.373451232910156" y="0" font-family="Virgil, Segoe UI Emoji" font-size="15.60378550101517px" fill="#1e1e1e" text-anchor="middle" style="white-space: pre;" direction="ltr" dominant-baseline="text-before-edge">IMG</text></g><g transform="translate(565.0125004180103 214.9934541980174) rotate(0 23.195075897183983 9.752365938134488)"><text x="0" y="0" font-family="Virgil, Segoe UI Emoji" font-size="15.60378550101517px" fill="#1e1e1e" text-anchor="start" style="white-space: pre;" direction="ltr" dominant-baseline="text-before-edge">Titulo</text></g><g transform="translate(586.4677054819061 252.54006305983518) rotate(0 41.006834189392805 9.752365938134488)"><text x="0" y="0" font-family="Virgil, Segoe UI Emoji" font-size="15.603785501015171px" fill="#1e1e1e" text-anchor="start" style="white-space: pre;" direction="ltr" dominant-baseline="text-before-edge">Descripci贸n</text></g></svg>