<svg version="1.1" xmlns="http://www.w3.org/2000/svg" viewBox="0 0 722 394" width="722" height="394" filter="invert(93%) hue-rotate(180deg)">
  <!-- svg-source:excalidraw -->
  
  <defs>
    <style class="style-fonts">
      @font-face {
        font-family: "Virgil";
        src: url("https://excalidraw.com/Virgil.woff2");
      }
      @font-face {
        font-family: "Cascadia";
        src: url("https://excalidraw.com/Cascadia.woff2");
      }
      @font-face {
        font-family: "Assistant";
        src: url("https://excalidraw.com/Assistant-Regular.woff2");
      }
    </style>
    
  </defs>
  <g stroke-linecap="round" transform="translate(10 10) rotate(0 351 187)"><path d="M32 0 C165.72 -0.97, 298.57 -0.16, 670 0 M32 0 C221.16 -2.72, 410.93 -2.47, 670 0 M670 0 C691.78 -1.38, 703.75 10.97, 702 32 M670 0 C691.35 -0.89, 702.63 12.35, 702 32 M702 32 C701.37 127.47, 702.45 224.29, 702 342 M702 32 C702 130.92, 701.57 230.43, 702 342 M702 342 C701.01 364.82, 692.04 372.68, 670 374 M702 342 C702.55 364.22, 690.8 373.78, 670 374 M670 374 C437.73 375.73, 205.33 375.38, 32 374 M670 374 C504.93 375.63, 340.07 376.13, 32 374 M32 374 C10.17 373.39, 0.53 364.64, 0 342 M32 374 C12.51 374.97, -0.64 365.05, 0 342 M0 342 C1.36 225.49, 1.43 106.34, 0 32 M0 342 C-1.48 243.42, -1.46 144.25, 0 32 M0 32 C-1.23 8.84, 12.41 -1.04, 32 0 M0 32 C0.97 11.8, 12.74 -1.59, 32 0" stroke="#1e1e1e" stroke-width="2" fill="none"></path></g><g transform="translate(33 37) rotate(0 67.2799301147461 62.5)"><text x="0" y="0" font-family="Virgil, Segoe UI Emoji" font-size="20px" fill="#1e1e1e" text-anchor="start" style="white-space: pre;" direction="ltr" dominant-baseline="text-before-edge">Inicio</text><text x="0" y="25" font-family="Virgil, Segoe UI Emoji" font-size="20px" fill="#1e1e1e" text-anchor="start" style="white-space: pre;" direction="ltr" dominant-baseline="text-before-edge">Skills</text><text x="0" y="50" font-family="Virgil, Segoe UI Emoji" font-size="20px" fill="#1e1e1e" text-anchor="start" style="white-space: pre;" direction="ltr" dominant-baseline="text-before-edge">Contacto</text><text x="0" y="75" font-family="Virgil, Segoe UI Emoji" font-size="20px" fill="#1e1e1e" text-anchor="start" style="white-space: pre;" direction="ltr" dominant-baseline="text-before-edge">Proyectos</text><text x="0" y="100" font-family="Virgil, Segoe UI Emoji" font-size="20px" fill="#1e1e1e" text-anchor="start" style="white-space: pre;" direction="ltr" dominant-baseline="text-before-edge">Descargar CV</text></g><g stroke-linecap="round" transform="translate(299 130) rotate(0 70 68)"><path d="M48.06 3.36 C57.02 -0.78, 68.66 -1.33, 78.72 -0.15 C88.78 1.04, 100.11 5.19, 108.41 10.48 C116.71 15.76, 123.33 23.3, 128.52 31.57 C133.72 39.83, 138.48 50.1, 139.57 60.06 C140.66 70.02, 138.51 81.78, 135.06 91.32 C131.61 100.85, 126.03 110.39, 118.89 117.27 C111.74 124.15, 101.72 129.69, 92.18 132.59 C82.64 135.48, 71.76 135.88, 61.66 134.67 C51.57 133.45, 40.28 130.45, 31.61 125.29 C22.93 120.13, 14.81 112.05, 9.62 103.72 C4.43 95.39, 1.37 84.99, 0.49 75.32 C-0.4 65.64, 0.87 54.81, 4.32 45.69 C7.76 36.57, 12.7 27.91, 21.14 20.59 C29.59 13.26, 48.16 4.85, 55 1.75 C61.83 -1.34, 61.89 0.8, 62.15 2.03 M83.1 2.52 C92.49 2.77, 102.73 5.72, 110.57 11.43 C118.4 17.13, 125.47 27.9, 130.12 36.74 C134.78 45.59, 138 54.71, 138.49 64.47 C138.98 74.24, 136.69 86.01, 133.08 95.33 C129.46 104.65, 123.91 114.15, 116.79 120.38 C109.66 126.61, 99.96 130.12, 90.32 132.71 C80.69 135.29, 69.03 137.67, 58.98 135.89 C48.93 134.12, 38.69 127.96, 30.04 122.05 C21.39 116.15, 12.21 108.87, 7.1 100.43 C1.99 91.99, -0.18 81.13, -0.61 71.41 C-1.04 61.7, 0.32 51.07, 4.52 42.14 C8.72 33.22, 17.03 24.52, 24.61 17.88 C32.19 11.25, 40.36 5.12, 50.01 2.34 C59.67 -0.43, 77.19 0.99, 82.54 1.22 C87.88 1.44, 82.24 2.52, 82.06 3.69" stroke="#1e1e1e" stroke-width="2" fill="none"></path></g><g stroke-linecap="round" transform="translate(392 224) rotate(0 31 15)"><path d="M7.5 0 C15.84 0.85, 29.26 0.31, 54.5 0 C62.32 0.44, 63.82 2.89, 62 7.5 C60.52 11.96, 64.38 18.79, 62 22.5 C64.16 29.31, 63.08 27.72, 54.5 30 C39.5 27.66, 28.36 29.49, 7.5 30 C4.17 28.01, 0.67 29.67, 0 22.5 C1.57 19.68, 2.87 14.06, 0 7.5 C1.39 2.89, 3.07 0.99, 7.5 0" stroke="none" stroke-width="0" fill="#b2f2bb"></path><path d="M7.5 0 C19.15 1.84, 26.59 -0.04, 54.5 0 M7.5 0 C24.86 -0.93, 41.9 0.14, 54.5 0 M54.5 0 C58.08 0.43, 60.08 3.12, 62 7.5 M54.5 0 C59.57 -1.03, 60.44 1.54, 62 7.5 M62 7.5 C61.68 10.73, 61.33 16.53, 62 22.5 M62 7.5 C61.71 11.26, 61.84 14.96, 62 22.5 M62 22.5 C60.04 29.4, 58.05 31.88, 54.5 30 M62 22.5 C64.09 27.88, 60.14 28.81, 54.5 30 M54.5 30 C37.93 32.19, 21.73 31.49, 7.5 30 M54.5 30 C37.61 29.52, 20.19 30.53, 7.5 30 M7.5 30 C2.06 30.86, -0.75 26.11, 0 22.5 M7.5 30 C2.72 29.79, -0.42 25.93, 0 22.5 M0 22.5 C0.14 19.79, -0.13 14.75, 0 7.5 M0 22.5 C-0.01 18.44, -0.76 14.97, 0 7.5 M0 7.5 C1.45 4.22, 3.07 -1.85, 7.5 0 M0 7.5 C-0.45 4.62, 0.65 1.58, 7.5 0" stroke="#1e1e1e" stroke-width="2" fill="none"></path></g><g transform="translate(397.09593963623047 229) rotate(0 25.90406036376953 10)"><text x="25.90406036376953" y="0" font-family="Virgil, Segoe UI Emoji" font-size="16px" fill="#2f9e44" text-anchor="middle" style="white-space: pre;" direction="ltr" dominant-baseline="text-before-edge">linkedin</text></g><g transform="translate(53 290) rotate(0 31.99207305908203 10)"><text x="0" y="0" font-family="Virgil, Segoe UI Emoji" font-size="16px" fill="#1971c2" text-anchor="start" style="white-space: pre;" direction="ltr" dominant-baseline="text-before-edge">Sobre mi</text></g><g transform="translate(53 316) rotate(0 280.3365783691406 20)"><text x="0" y="0" font-family="Virgil, Segoe UI Emoji" font-size="16px" fill="#1e1e1e" text-anchor="start" style="white-space: pre;" direction="ltr" dominant-baseline="text-before-edge">Lorem ipsum dolor sit amet, consectetur adipiscing elit.</text><text x="0" y="20" font-family="Virgil, Segoe UI Emoji" font-size="16px" fill="#1e1e1e" text-anchor="start" style="white-space: pre;" direction="ltr" dominant-baseline="text-before-edge">Vivamus venenatis nisi vitae enim semper, vel malesuada metus pretium.</text></g></svg>