<svg version="1.1" xmlns="http://www.w3.org/2000/svg" viewBox="0 0 615.5 544" width="615.5" height="544" filter="invert(93%) hue-rotate(180deg)">
  <!-- svg-source:excalidraw -->
  
  <defs>
    <style class="style-fonts">
      @font-face {
        font-family: "Virgil";
        src: url("https://excalidraw.com/Virgil.woff2");
      }
      @font-face {
        font-family: "Cascadia";
        src: url("https://excalidraw.com/Cascadia.woff2");
      }
      @font-face {
        font-family: "Assistant";
        src: url("https://excalidraw.com/Assistant-Regular.woff2");
      }
    </style>
    
  </defs>
  <g transform="translate(350 60) rotate(0 67.2799301147461 62.5)"><text x="0" y="0" font-family="Virgil, Segoe UI Emoji" font-size="20px" fill="#1e1e1e" text-anchor="start" style="white-space: pre;" direction="ltr" dominant-baseline="text-before-edge">Inicio</text><text x="0" y="25" font-family="Virgil, Segoe UI Emoji" font-size="20px" fill="#1e1e1e" text-anchor="start" style="white-space: pre;" direction="ltr" dominant-baseline="text-before-edge">Skills</text><text x="0" y="50" font-family="Virgil, Segoe UI Emoji" font-size="20px" fill="#1e1e1e" text-anchor="start" style="white-space: pre;" direction="ltr" dominant-baseline="text-before-edge">Contacto</text><text x="0" y="75" font-family="Virgil, Segoe UI Emoji" font-size="20px" fill="#1e1e1e" text-anchor="start" style="white-space: pre;" direction="ltr" dominant-baseline="text-before-edge">Proyectos</text><text x="0" y="100" font-family="Virgil, Segoe UI Emoji" font-size="20px" fill="#1e1e1e" text-anchor="start" style="white-space: pre;" direction="ltr" dominant-baseline="text-before-edge">Descargar CV</text></g><g stroke-linecap="round" transform="translate(80 101) rotate(0 70 68)"><path d="M48.06 3.36 C57.02 -0.78, 68.66 -1.33, 78.72 -0.15 C88.78 1.04, 100.11 5.19, 108.41 10.48 C116.71 15.76, 123.33 23.3, 128.52 31.57 C133.72 39.83, 138.48 50.1, 139.57 60.06 C140.66 70.02, 138.51 81.78, 135.06 91.32 C131.61 100.85, 126.03 110.39, 118.89 117.27 C111.74 124.15, 101.72 129.69, 92.18 132.59 C82.64 135.48, 71.76 135.88, 61.66 134.67 C51.57 133.45, 40.28 130.45, 31.61 125.29 C22.93 120.13, 14.81 112.05, 9.62 103.72 C4.43 95.39, 1.37 84.99, 0.49 75.32 C-0.4 65.64, 0.87 54.81, 4.32 45.69 C7.76 36.57, 12.7 27.91, 21.14 20.59 C29.59 13.26, 48.16 4.85, 55 1.75 C61.83 -1.34, 61.89 0.8, 62.15 2.03 M83.1 2.52 C92.49 2.77, 102.73 5.72, 110.57 11.43 C118.4 17.13, 125.47 27.9, 130.12 36.74 C134.78 45.59, 138 54.71, 138.49 64.47 C138.98 74.24, 136.69 86.01, 133.08 95.33 C129.46 104.65, 123.91 114.15, 116.79 120.38 C109.66 126.61, 99.96 130.12, 90.32 132.71 C80.69 135.29, 69.03 137.67, 58.98 135.89 C48.93 134.12, 38.69 127.96, 30.04 122.05 C21.39 116.15, 12.21 108.87, 7.1 100.43 C1.99 91.99, -0.18 81.13, -0.61 71.41 C-1.04 61.7, 0.32 51.07, 4.52 42.14 C8.72 33.22, 17.03 24.52, 24.61 17.88 C32.19 11.25, 40.36 5.12, 50.01 2.34 C59.67 -0.43, 77.19 0.99, 82.54 1.22 C87.88 1.44, 82.24 2.52, 82.06 3.69" stroke="#1e1e1e" stroke-width="1" fill="none"></path></g><g stroke-linecap="round" transform="translate(173 195) rotate(0 31 15)"><path d="M2 1.74 C2 1.74, 2 1.74, 2 1.74 M2 1.74 C2 1.74, 2 1.74, 2 1.74 M0.42 9.64 C3.12 7.88, 5.65 4.16, 8.3 0.59 M0.42 9.64 C2.56 6.42, 5.43 4.01, 8.3 0.59 M0.82 15.29 C6.36 8.78, 8.22 6.49, 13.28 0.95 M0.82 15.29 C4.53 10.49, 9.66 5.23, 13.28 0.95 M1.21 20.93 C6.81 14.09, 11.01 7.89, 18.93 0.55 M1.21 20.93 C5.26 16.47, 8.44 12.82, 18.93 0.55 M1.61 26.57 C6.64 21.27, 9.8 16.83, 23.91 0.91 M1.61 26.57 C10.27 16.46, 20.15 6.66, 23.91 0.91 M3.97 29.95 C9.08 20.55, 18.21 13.3, 29.56 0.52 M3.97 29.95 C11.76 19.93, 20.67 9.76, 29.56 0.52 M9.61 29.56 C16.96 22.51, 25.99 10.56, 34.54 0.88 M9.61 29.56 C18.94 18.62, 28.91 6.58, 34.54 0.88 M14.6 29.92 C22.4 21.49, 28.62 16.8, 39.53 1.24 M14.6 29.92 C21.48 22.1, 29.32 14.3, 39.53 1.24 M20.24 29.52 C30.14 20.79, 36.1 10.1, 45.17 0.84 M20.24 29.52 C26.61 22.48, 33.63 15.11, 45.17 0.84 M25.23 29.88 C32.59 17.79, 42.93 7.75, 50.16 1.2 M25.23 29.88 C31.04 21.55, 38.34 14.69, 50.16 1.2 M30.87 29.49 C40.17 20.5, 48.77 9.17, 55.8 0.81 M30.87 29.49 C37.04 21.68, 42.15 14.73, 55.8 0.81 M35.86 29.85 C42.65 22.69, 50.82 13.89, 59.48 2.68 M35.86 29.85 C45.74 18.59, 54.19 7.68, 59.48 2.68 M40.85 30.21 C48.22 19.98, 55.11 12.25, 61.84 6.06 M40.85 30.21 C47.52 22.09, 55.27 13.93, 61.84 6.06 M46.49 29.81 C50.86 23.99, 55.55 21.67, 61.58 12.45 M46.49 29.81 C51.42 24.8, 57.67 17.41, 61.58 12.45 M51.48 30.17 C52.58 27.75, 57.39 23.85, 61.97 18.1 M51.48 30.17 C54.13 26.22, 57.34 23.68, 61.97 18.1 M57.12 29.78 C58.74 27.77, 59.72 27.01, 61.71 24.5 M57.12 29.78 C58.61 28.38, 59.86 26.02, 61.71 24.5" stroke="#b2f2bb" stroke-width="0.5" fill="none"></path><path d="M7.5 0 C19.15 1.84, 26.59 -0.04, 54.5 0 M7.5 0 C24.86 -0.93, 41.9 0.14, 54.5 0 M54.5 0 C58.08 0.43, 60.08 3.12, 62 7.5 M54.5 0 C59.57 -1.03, 60.44 1.54, 62 7.5 M62 7.5 C61.68 10.73, 61.33 16.53, 62 22.5 M62 7.5 C61.71 11.26, 61.84 14.96, 62 22.5 M62 22.5 C60.04 29.4, 58.05 31.88, 54.5 30 M62 22.5 C64.09 27.88, 60.14 28.81, 54.5 30 M54.5 30 C37.93 32.19, 21.73 31.49, 7.5 30 M54.5 30 C37.61 29.52, 20.19 30.53, 7.5 30 M7.5 30 C2.06 30.86, -0.75 26.11, 0 22.5 M7.5 30 C2.72 29.79, -0.42 25.93, 0 22.5 M0 22.5 C0.14 19.79, -0.13 14.75, 0 7.5 M0 22.5 C-0.01 18.44, -0.76 14.97, 0 7.5 M0 7.5 C1.45 4.22, 3.07 -1.85, 7.5 0 M0 7.5 C-0.45 4.62, 0.65 1.58, 7.5 0" stroke="#1e1e1e" stroke-width="1" fill="none"></path></g><g transform="translate(178.09593963623047 200) rotate(0 25.90406036376953 10)"><text x="25.90406036376953" y="0" font-family="Virgil, Segoe UI Emoji" font-size="16px" fill="#2f9e44" text-anchor="middle" style="white-space: pre;" direction="ltr" dominant-baseline="text-before-edge">linkedin</text></g><g transform="translate(129 263) rotate(0 31.99207305908203 10)"><text x="0" y="0" font-family="Virgil, Segoe UI Emoji" font-size="16px" fill="#1971c2" text-anchor="start" style="white-space: pre;" direction="ltr" dominant-baseline="text-before-edge">Sobre mi</text></g><g transform="translate(42 299) rotate(0 113.47224426269531 50)"><text x="0" y="0" font-family="Virgil, Segoe UI Emoji" font-size="16px" fill="#1e1e1e" text-anchor="start" style="white-space: pre;" direction="ltr" dominant-baseline="text-before-edge">Lorem ipsum dolor sit amet, </text><text x="0" y="20" font-family="Virgil, Segoe UI Emoji" font-size="16px" fill="#1e1e1e" text-anchor="start" style="white-space: pre;" direction="ltr" dominant-baseline="text-before-edge">consectetur adipiscing elit.</text><text x="0" y="40" font-family="Virgil, Segoe UI Emoji" font-size="16px" fill="#1e1e1e" text-anchor="start" style="white-space: pre;" direction="ltr" dominant-baseline="text-before-edge">Vivamus venenatis nisi vitae </text><text x="0" y="60" font-family="Virgil, Segoe UI Emoji" font-size="16px" fill="#1e1e1e" text-anchor="start" style="white-space: pre;" direction="ltr" dominant-baseline="text-before-edge">enim semper, vel malesuada </text><text x="0" y="80" font-family="Virgil, Segoe UI Emoji" font-size="16px" fill="#1e1e1e" text-anchor="start" style="white-space: pre;" direction="ltr" dominant-baseline="text-before-edge">metus pretium.</text></g><g stroke-linecap="round" transform="translate(10 12) rotate(0 139.5 261)"><path d="M32 0 C90.31 1.97, 146.25 1.26, 247 0 M32 0 C117.24 1.63, 204.13 1.32, 247 0 M247 0 C267.63 1.74, 279.77 10.33, 279 32 M247 0 C266.15 1.23, 279.79 10.27, 279 32 M279 32 C278.46 197.48, 278.08 364, 279 490 M279 32 C279.85 187.73, 280.02 343.57, 279 490 M279 490 C278.26 510.69, 266.88 521.37, 247 522 M279 490 C280.43 511.74, 267.39 522.64, 247 522 M247 522 C166.41 521.29, 84.25 522.6, 32 522 M247 522 C161.9 521.5, 78.24 521.41, 32 522 M32 522 C11.24 520.31, 0.77 513, 0 490 M32 522 C11.52 521.59, 0.86 512.58, 0 490 M0 490 C-0.5 344.4, -0.68 197.73, 0 32 M0 490 C0.89 377.36, 1.39 264.12, 0 32 M0 32 C-0.01 11.27, 9.81 0.6, 32 0 M0 32 C1.43 9.61, 11.81 1.66, 32 0" stroke="#1e1e1e" stroke-width="2" fill="none"></path></g><g transform="translate(256 33) rotate(0 13 -0.5)" stroke="none"><path fill="#1e1e1e" d="M 0,-2.43 Q 0,-2.43 1.72,-2.39 3.44,-2.34 5.33,-2.27 7.21,-2.20 8.58,-2.23 9.95,-2.26 11.18,-2.54 12.41,-2.82 14.02,-2.97 15.62,-3.12 17.86,-3.28 20.10,-3.44 23.05,-3.55 25.99,-3.65 26.41,-3.58 26.84,-3.51 27.22,-3.31 27.60,-3.11 27.89,-2.80 28.19,-2.49 28.37,-2.10 28.55,-1.71 28.60,-1.28 28.64,-0.85 28.55,-0.44 28.46,-0.02 28.24,0.34 28.02,0.71 27.69,0.99 27.37,1.27 26.97,1.42 26.57,1.58 26.14,1.61 25.71,1.63 25.30,1.52 24.88,1.40 24.53,1.16 24.17,0.92 23.91,0.58 23.65,0.24 23.52,-0.16 23.38,-0.56 23.38,-0.99 23.38,-1.42 23.51,-1.83 23.65,-2.23 23.91,-2.58 24.17,-2.92 24.52,-3.16 24.88,-3.40 25.29,-3.52 25.71,-3.63 26.13,-3.61 26.56,-3.59 26.96,-3.43 27.36,-3.27 27.69,-2.99 28.01,-2.71 28.24,-2.35 28.46,-1.98 28.55,-1.56 28.64,-1.14 28.60,-0.71 28.55,-0.29 28.37,0.09 28.19,0.48 27.90,0.79 27.60,1.10 27.22,1.31 26.84,1.51 26.42,1.58 26.00,1.65 26.00,1.65 26.00,1.65 23.09,1.58 20.19,1.51 18.10,1.50 16.00,1.48 14.65,1.58 13.30,1.67 11.64,1.97 9.97,2.26 8.59,2.23 7.21,2.20 5.33,2.27 3.44,2.34 1.72,2.39 0,2.43 -0.29,2.40 -0.58,2.36 -0.85,2.26 -1.13,2.15 -1.37,1.99 -1.61,1.82 -1.81,1.60 -2.00,1.38 -2.14,1.12 -2.27,0.86 -2.35,0.57 -2.42,0.29 -2.42,-0.00 -2.42,-0.29 -2.35,-0.57 -2.27,-0.86 -2.14,-1.12 -2.00,-1.38 -1.81,-1.60 -1.61,-1.82 -1.37,-1.99 -1.13,-2.15 -0.85,-2.26 -0.58,-2.36 -0.29,-2.40 0.00,-2.43 0.00,-2.43 L 0,-2.43 Z"></path></g><g transform="translate(254 42) rotate(0 13 -0.5)" stroke="none"><path fill="#1e1e1e" d="M 0,-2.53 Q 0,-2.53 1.43,-2.52 2.87,-2.51 4.34,-2.50 5.82,-2.49 7.69,-2.57 9.57,-2.66 12.12,-2.64 14.68,-2.63 16.90,-2.66 19.12,-2.70 20.87,-2.76 22.63,-2.82 23.22,-2.84 23.81,-2.86 24.17,-3.16 24.52,-3.46 24.95,-3.63 25.38,-3.80 25.85,-3.82 26.31,-3.85 26.76,-3.72 27.21,-3.60 27.59,-3.34 27.97,-3.07 28.25,-2.70 28.53,-2.33 28.68,-1.89 28.83,-1.45 28.83,-0.99 28.83,-0.52 28.68,-0.08 28.53,0.35 28.25,0.71 27.96,1.08 27.58,1.34 27.19,1.60 26.75,1.73 26.30,1.85 25.84,1.82 25.37,1.80 24.94,1.62 24.51,1.45 24.16,1.15 23.80,0.85 23.56,0.45 23.33,0.05 23.23,-0.39 23.13,-0.85 23.18,-1.31 23.23,-1.77 23.43,-2.19 23.62,-2.61 23.94,-2.95 24.26,-3.28 24.67,-3.50 25.08,-3.72 25.54,-3.79 26.00,-3.87 26.46,-3.79 26.92,-3.71 27.33,-3.49 27.74,-3.28 28.06,-2.94 28.37,-2.60 28.57,-2.18 28.76,-1.76 28.81,-1.29 28.86,-0.83 28.76,-0.38 28.66,0.06 28.42,0.46 28.18,0.86 28.18,0.86 28.18,0.86 25.40,1.84 22.63,2.82 20.87,2.76 19.12,2.70 16.90,2.66 14.68,2.63 12.12,2.64 9.57,2.66 7.69,2.57 5.82,2.49 4.34,2.50 2.87,2.51 1.43,2.52 0,2.53 -0.30,2.49 -0.60,2.45 -0.89,2.34 -1.17,2.24 -1.42,2.06 -1.67,1.89 -1.88,1.66 -2.08,1.43 -2.22,1.16 -2.36,0.89 -2.43,0.60 -2.51,0.30 -2.51,-0.00 -2.51,-0.30 -2.43,-0.60 -2.36,-0.89 -2.22,-1.16 -2.08,-1.43 -1.88,-1.66 -1.67,-1.89 -1.42,-2.06 -1.17,-2.24 -0.89,-2.34 -0.60,-2.45 -0.30,-2.49 0.00,-2.53 0.00,-2.53 L 0,-2.53 Z"></path></g><g transform="translate(257 49) rotate(0 13.5 0)" stroke="none"><path fill="#1e1e1e" d="M 0,-2.54 Q 0,-2.54 1.72,-2.49 3.44,-2.43 4.75,-2.45 6.06,-2.47 7.19,-2.50 8.32,-2.53 9.99,-2.62 11.66,-2.70 13.32,-2.76 14.97,-2.83 16.41,-2.79 17.86,-2.76 20.01,-2.78 22.15,-2.80 24.57,-2.86 27,-2.92 27.46,-2.84 27.93,-2.76 28.35,-2.54 28.76,-2.32 29.09,-1.98 29.41,-1.63 29.61,-1.21 29.81,-0.78 29.86,-0.31 29.91,0.15 29.81,0.61 29.71,1.08 29.47,1.48 29.22,1.89 28.86,2.19 28.50,2.50 28.06,2.67 27.62,2.85 27.15,2.87 26.68,2.90 26.22,2.77 25.77,2.65 25.38,2.38 24.99,2.12 24.70,1.74 24.41,1.36 24.26,0.92 24.11,0.47 24.11,-0.00 24.11,-0.47 24.26,-0.92 24.41,-1.36 24.70,-1.74 24.99,-2.12 25.38,-2.38 25.77,-2.65 26.22,-2.77 26.68,-2.90 27.15,-2.87 27.62,-2.85 28.06,-2.67 28.50,-2.50 28.86,-2.19 29.22,-1.89 29.47,-1.48 29.71,-1.08 29.81,-0.61 29.91,-0.15 29.86,0.31 29.81,0.78 29.61,1.21 29.41,1.64 29.09,1.98 28.76,2.32 28.34,2.54 27.93,2.76 27.46,2.84 26.99,2.92 26.99,2.92 27,2.92 24.57,2.86 22.15,2.80 20.01,2.78 17.86,2.76 16.41,2.79 14.97,2.83 13.32,2.76 11.66,2.70 9.99,2.62 8.32,2.53 7.19,2.50 6.06,2.47 4.75,2.45 3.44,2.43 1.72,2.49 0,2.54 -0.30,2.51 -0.60,2.47 -0.89,2.36 -1.18,2.25 -1.43,2.08 -1.69,1.90 -1.89,1.67 -2.09,1.44 -2.24,1.17 -2.38,0.90 -2.45,0.60 -2.53,0.30 -2.53,-0.00 -2.53,-0.30 -2.45,-0.60 -2.38,-0.90 -2.24,-1.17 -2.09,-1.44 -1.89,-1.67 -1.69,-1.90 -1.43,-2.08 -1.18,-2.25 -0.89,-2.36 -0.60,-2.47 -0.30,-2.51 0.00,-2.54 0.00,-2.54 L 0,-2.54 Z"></path></g><g stroke-linecap="round" transform="translate(326.5 10) rotate(0 139.5 261)"><path d="M32 0 C75.78 0.96, 118.3 -0.02, 247 0 M32 0 C97.17 -2.4, 162.33 -1.77, 247 0 M247 0 C266.44 1.48, 279.06 11.71, 279 32 M247 0 C268.77 -1.54, 279.46 12.31, 279 32 M279 32 C280.51 149.53, 280.42 266.41, 279 490 M279 32 C279.4 203.3, 279.55 374.45, 279 490 M279 490 C279.92 511.08, 268.42 522.11, 247 522 M279 490 C277.84 509.76, 267.76 520.68, 247 522 M247 522 C192.08 523.99, 134.13 521.85, 32 522 M247 522 C171.39 521.58, 97.43 521.97, 32 522 M32 522 C11.28 523.09, 0.87 512.87, 0 490 M32 522 C8.83 520.93, 1.9 510.94, 0 490 M0 490 C0.78 335.06, 1.07 181.46, 0 32 M0 490 C-1.82 360.86, -1.46 232.84, 0 32 M0 32 C0.06 9.02, 12.01 -0.89, 32 0 M0 32 C-0.43 11.46, 10.58 1.73, 32 0" stroke="#1e1e1e" stroke-width="2" fill="none"></path></g><g transform="translate(573 27) rotate(0 10.5 9.5)" stroke="none"><path fill="#1e1e1e" d="M 1.26,-2.10 Q 1.26,-2.10 2.68,-1.20 4.09,-0.31 5.10,0.36 6.12,1.04 7.18,1.95 8.25,2.87 9.51,4.17 10.77,5.47 11.77,6.17 12.78,6.86 13.78,7.96 14.78,9.06 15.65,9.97 16.51,10.88 17.11,11.79 17.71,12.71 18.89,13.93 20.07,15.15 21.39,15.98 22.72,16.80 23.02,17.13 23.33,17.46 23.51,17.88 23.69,18.29 23.74,18.74 23.78,19.19 23.67,19.63 23.57,20.07 23.33,20.45 23.09,20.83 22.75,21.12 22.40,21.41 21.98,21.57 21.55,21.73 21.10,21.75 20.65,21.76 20.22,21.64 19.79,21.51 19.42,21.25 19.05,20.99 18.78,20.63 18.51,20.26 18.37,19.83 18.24,19.40 18.24,18.95 18.25,18.50 18.40,18.08 18.55,17.65 18.83,17.30 19.11,16.94 19.48,16.69 19.86,16.45 20.30,16.33 20.74,16.22 21.19,16.25 21.64,16.28 22.05,16.45 22.47,16.63 22.81,16.92 23.15,17.22 23.38,17.61 23.60,18.00 23.69,18.44 23.78,18.89 23.73,19.33 23.67,19.78 23.48,20.19 23.28,20.60 22.96,20.92 22.65,21.24 22.25,21.45 21.85,21.65 21.40,21.72 20.95,21.78 20.51,21.70 20.06,21.62 19.67,21.41 19.27,21.19 19.27,21.19 19.27,21.19 17.08,19.30 14.88,17.42 13.85,15.84 12.82,14.26 11.37,12.50 9.92,10.74 8.69,9.82 7.47,8.90 6.19,7.75 4.92,6.60 3.28,5.18 1.65,3.76 0.19,2.93 -1.26,2.10 -1.49,1.92 -1.72,1.74 -1.91,1.50 -2.09,1.27 -2.21,1.00 -2.34,0.73 -2.39,0.44 -2.44,0.15 -2.43,-0.13 -2.41,-0.43 -2.32,-0.71 -2.24,-0.99 -2.08,-1.25 -1.93,-1.50 -1.72,-1.71 -1.51,-1.92 -1.26,-2.08 -1.01,-2.23 -0.73,-2.32 -0.45,-2.41 -0.15,-2.43 0.14,-2.44 0.43,-2.39 0.72,-2.34 0.99,-2.22 1.26,-2.10 1.26,-2.10 L 1.26,-2.10 Z"></path></g><g transform="translate(593 27) rotate(0 -8.5 7.5)" stroke="none"><path fill="#1e1e1e" d="M 0.63,2.55 Q 0.63,2.55 -0.50,2.86 -1.65,3.16 -3.10,3.59 -4.55,4.02 -6.14,5.60 -7.73,7.17 -8.90,8.24 -10.06,9.30 -10.98,11.17 -11.89,13.03 -12.37,14.07 -12.85,15.10 -13.41,16.11 -13.96,17.12 -14.22,17.58 -14.48,18.03 -14.87,18.38 -15.26,18.73 -15.74,18.94 -16.23,19.14 -16.75,19.18 -17.27,19.22 -17.78,19.09 -18.29,18.97 -18.73,18.68 -19.17,18.40 -19.49,17.99 -19.82,17.58 -20.00,17.09 -20.18,16.59 -20.19,16.07 -20.20,15.55 -20.05,15.05 -19.89,14.54 -19.58,14.12 -19.28,13.70 -18.85,13.39 -18.42,13.09 -17.92,12.94 -17.42,12.78 -16.90,12.80 -16.37,12.82 -15.88,13.00 -15.39,13.18 -14.98,13.51 -14.58,13.84 -14.30,14.28 -14.01,14.73 -13.89,15.24 -13.77,15.74 -13.81,16.27 -13.85,16.79 -14.06,17.27 -14.27,17.75 -14.62,18.14 -14.98,18.53 -15.43,18.78 -15.89,19.04 -16.41,19.14 -16.92,19.23 -17.44,19.16 -17.96,19.09 -18.43,18.85 -18.90,18.62 -19.26,18.25 -19.63,17.87 -19.86,17.40 -20.10,16.93 -20.16,16.41 -20.23,15.89 -20.13,15.38 -20.03,14.87 -20.03,14.87 -20.03,14.87 -18.91,13.08 -17.79,11.28 -17.23,10.26 -16.67,9.23 -15.99,8.06 -15.32,6.89 -14.73,5.98 -14.15,5.06 -12.65,3.80 -11.14,2.53 -9.85,1.49 -8.56,0.45 -7.67,-0.28 -6.77,-1.03 -4.85,-1.52 -2.94,-2.01 -1.79,-2.28 -0.63,-2.55 -0.32,-2.59 -0.00,-2.63 0.30,-2.60 0.62,-2.56 0.92,-2.45 1.21,-2.33 1.48,-2.15 1.74,-1.97 1.95,-1.74 2.16,-1.50 2.31,-1.22 2.46,-0.94 2.54,-0.63 2.61,-0.32 2.61,-0.00 2.61,0.30 2.54,0.61 2.46,0.92 2.32,1.20 2.17,1.49 1.96,1.72 1.75,1.96 1.49,2.14 1.23,2.33 0.93,2.44 0.63,2.55 0.63,2.55 L 0.63,2.55 Z"></path></g><g stroke-linecap="round" transform="translate(396.5277557373047 210) rotate(0 70 68)"><path d="M37.03 8.81 C44.98 3.4, 57.29 0.9, 67.3 0.48 C77.31 0.06, 87.75 2.41, 97.07 6.3 C106.39 10.18, 116.51 16.69, 123.22 23.79 C129.93 30.89, 134.58 39.58, 137.35 48.88 C140.11 58.18, 141.48 69.73, 139.78 79.59 C138.09 89.45, 133.22 99.86, 127.17 108.05 C121.12 116.23, 112.58 123.98, 103.49 128.72 C94.4 133.46, 82.8 136.2, 72.62 136.47 C62.43 136.75, 51.75 134.28, 42.38 130.37 C33.02 126.45, 23.16 120.17, 16.41 112.97 C9.66 105.77, 4.35 96.58, 1.88 87.15 C-0.59 77.72, -0.49 66.12, 1.58 56.38 C3.65 46.63, 7.63 37.12, 14.31 28.67 C21 20.22, 35.98 9.66, 41.71 5.67 C47.45 1.68, 47.97 3.72, 48.71 4.73 M72.97 0.77 C82.83 0.19, 94.14 3.59, 103.28 8.37 C112.42 13.15, 121.68 21.48, 127.81 29.45 C133.95 37.42, 138.55 46.73, 140.11 56.18 C141.68 65.62, 140.3 76.68, 137.22 86.14 C134.14 95.6, 128.38 105.31, 121.65 112.94 C114.91 120.57, 105.75 127.96, 96.8 131.9 C87.85 135.83, 77.97 137.39, 67.94 136.56 C57.92 135.74, 45.78 131.67, 36.64 126.94 C27.51 122.2, 18.97 116.04, 13.12 108.17 C7.28 100.3, 3.13 89.23, 1.55 79.72 C-0.03 70.22, 1.12 60.36, 3.64 51.13 C6.16 41.9, 9.93 31.86, 16.66 24.36 C23.38 16.86, 34.56 10.3, 44 6.15 C53.43 2, 68.48 0.4, 73.26 -0.55 C78.03 -1.49, 72.81 -0.71, 72.66 0.47" stroke="#1e1e1e" stroke-width="1" fill="none"></path></g><g stroke-linecap="round" transform="translate(489.5277557373047 304) rotate(0 31 15)"><path d="M2 1.74 C2 1.74, 2 1.74, 2 1.74 M2 1.74 C2 1.74, 2 1.74, 2 1.74 M0.42 9.64 C4 6.72, 5.82 3.68, 8.3 0.59 M0.42 9.64 C3.24 6.17, 6.01 3.63, 8.3 0.59 M0.82 15.29 C5.91 8.2, 11.39 4.29, 13.28 0.95 M0.82 15.29 C5.45 9.41, 9.16 5.11, 13.28 0.95 M1.21 20.93 C6.01 13.94, 13.76 5.11, 18.93 0.55 M1.21 20.93 C6.25 15.16, 12.11 9.35, 18.93 0.55 M1.61 26.57 C10.19 18.84, 17.81 6.34, 23.91 0.91 M1.61 26.57 C9.29 18.09, 17.16 10.08, 23.91 0.91 M3.97 29.95 C13.62 19.64, 19.55 13.27, 29.56 0.52 M3.97 29.95 C13.41 21.34, 21.09 10.3, 29.56 0.52 M9.61 29.56 C16.52 21.39, 28.2 10.36, 34.54 0.88 M9.61 29.56 C16.11 22.26, 22.94 13.58, 34.54 0.88 M14.6 29.92 C23.06 22.54, 30.45 11.15, 39.53 1.24 M14.6 29.92 C22.78 21.61, 29.8 13.62, 39.53 1.24 M20.24 29.52 C29.1 18.08, 40.54 8.44, 45.17 0.84 M20.24 29.52 C27.31 21.57, 34.69 13.56, 45.17 0.84 M25.23 29.88 C33.84 17.88, 43.41 8.11, 50.16 1.2 M25.23 29.88 C31.14 23.38, 37.95 15.13, 50.16 1.2 M30.87 29.49 C38.3 18.11, 46.44 8.73, 55.8 0.81 M30.87 29.49 C38.72 19.27, 48.06 9.57, 55.8 0.81 M35.86 29.85 C44.18 19.07, 50.39 12.51, 59.48 2.68 M35.86 29.85 C41.73 23.87, 47.07 17.83, 59.48 2.68 M40.85 30.21 C45.8 23.04, 52.16 20.49, 61.84 6.06 M40.85 30.21 C46.61 21.84, 53.81 14.26, 61.84 6.06 M46.49 29.81 C52.74 26.66, 57.16 21.72, 61.58 12.45 M46.49 29.81 C52.4 23.51, 57 18.01, 61.58 12.45 M51.48 30.17 C53.13 28.75, 57.79 24.24, 61.97 18.1 M51.48 30.17 C53.5 28, 56.31 24.44, 61.97 18.1 M57.12 29.78 C59.07 27.28, 60.83 26.34, 61.71 24.5 M57.12 29.78 C58.97 27.83, 60.18 25.99, 61.71 24.5" stroke="#b2f2bb" stroke-width="0.5" fill="none"></path><path d="M7.5 0 C18.79 2.1, 28.29 1.76, 54.5 0 M7.5 0 C24.92 0.73, 41.22 0.06, 54.5 0 M54.5 0 C57.6 1.79, 61.05 3.48, 62 7.5 M54.5 0 C59.82 0.56, 64.01 1.11, 62 7.5 M62 7.5 C60.58 13.07, 60.97 19.61, 62 22.5 M62 7.5 C62.5 12.01, 62.26 17.55, 62 22.5 M62 22.5 C62.47 29.12, 59.61 30.19, 54.5 30 M62 22.5 C60 27.88, 58.87 31.06, 54.5 30 M54.5 30 C42.36 31.92, 27.05 30.07, 7.5 30 M54.5 30 C40.65 30.86, 28.32 30.44, 7.5 30 M7.5 30 C2.54 28.89, -0.14 28.02, 0 22.5 M7.5 30 C3.22 29.71, 1.61 29.72, 0 22.5 M0 22.5 C0.64 18.66, -0.75 14.42, 0 7.5 M0 22.5 C-0.32 19.31, -0.08 15.17, 0 7.5 M0 7.5 C1.57 1.08, 1.63 -0.15, 7.5 0 M0 7.5 C-2.02 2.04, 0.82 -0.47, 7.5 0" stroke="#1e1e1e" stroke-width="1" fill="none"></path></g><g transform="translate(494.62369537353516 309) rotate(0 25.90406036376953 10)"><text x="25.90406036376953" y="0" font-family="Virgil, Segoe UI Emoji" font-size="16px" fill="#2f9e44" text-anchor="middle" style="white-space: pre;" direction="ltr" dominant-baseline="text-before-edge">linkedin</text></g><g transform="translate(445.5277557373047 372) rotate(0 31.99207305908203 10)"><text x="0" y="0" font-family="Virgil, Segoe UI Emoji" font-size="16px" fill="#1971c2" text-anchor="start" style="white-space: pre;" direction="ltr" dominant-baseline="text-before-edge">Sobre mi</text></g><g transform="translate(358.5277557373047 408) rotate(0 113.47224426269531 50)"><text x="0" y="0" font-family="Virgil, Segoe UI Emoji" font-size="16px" fill="#1e1e1e" text-anchor="start" style="white-space: pre;" direction="ltr" dominant-baseline="text-before-edge">Lorem ipsum dolor sit amet, </text><text x="0" y="20" font-family="Virgil, Segoe UI Emoji" font-size="16px" fill="#1e1e1e" text-anchor="start" style="white-space: pre;" direction="ltr" dominant-baseline="text-before-edge">consectetur adipiscing elit.</text><text x="0" y="40" font-family="Virgil, Segoe UI Emoji" font-size="16px" fill="#1e1e1e" text-anchor="start" style="white-space: pre;" direction="ltr" dominant-baseline="text-before-edge">Vivamus venenatis nisi vitae </text><text x="0" y="60" font-family="Virgil, Segoe UI Emoji" font-size="16px" fill="#1e1e1e" text-anchor="start" style="white-space: pre;" direction="ltr" dominant-baseline="text-before-edge">enim semper, vel malesuada </text><text x="0" y="80" font-family="Virgil, Segoe UI Emoji" font-size="16px" fill="#1e1e1e" text-anchor="start" style="white-space: pre;" direction="ltr" dominant-baseline="text-before-edge">metus pretium.</text></g></svg>